<?xml version="1.0" encoding="utf-8"?>
<!-- Generator: Adobe Illustrator 22.0.1, SVG Export Plug-In . SVG Version: 6.00 Build 0)  -->
<svg version="1.1" xmlns="http://www.w3.org/2000/svg" xmlns:xlink="http://www.w3.org/1999/xlink" x="0px" y="0px"
	 viewBox="0 0 792 612" style="enable-background:new 0 0 792 612;" xml:space="preserve">
<style type="text/css">
	.st0{fill:#006838;}
	.st1{fill:#1B773A;}
	.st2{fill:#F05724;}
	.st3{fill:none;stroke:#000000;stroke-miterlimit:10;}
	.st4{fill:#FAA95A;}
	.st5{fill:#FED3AA;}
	.st6{fill:#F47E20;}
	.st7{fill:none;}
	.st8{font-family:'Montserrat-Medium';}
	.st9{font-size:126.0263px;}
	.st10{letter-spacing:-10;}
	.st11{font-size:311.4154px;}
	.st12{letter-spacing:-24;}
</style>
<g id="Layer_6">
</g>
<g id="Layer_2">
</g>
<g id="Layer_3">
</g>
<g id="Layer_4">
</g>
<g id="Layer_5">
	<g>
		<path class="st0" d="M47.3,7.5C38.3,10,34.4,24.2,35,34.3c1.5,22.2,26.1,42.2,37.2,37.9c9.4-3.7,11.1-25.9,4-41.6
			C70.9,18.9,57.8,4.5,47.3,7.5z"/>
		<path class="st1" d="M7.4,61.6c4-4.8,11.1-8.7,16.7-10.4c25.8-8,55.6,19.4,44.8,30.2c-8.8,8.8-50,12-61.2-1.7
			C6.4,78.2,0,70.4,7.4,61.6z"/>
		<path class="st2" d="M104.3,261.1c-3-1.4-6.8-3.2-10.9-5.7l-6.3-4l-6.2-4.9l-7.2-7.3l-7.5-8.5l-6.8-9.1l-7.1-11l-4.3-7.8l-3.2-6.9
			l-2.1-5.8l-1.7-5.3l-1.4-5.7l-1.8-10.3l-0.4-6.8v-4.4c0.2-2.1,0.5-4.2,0.7-6.3c0.2-2.3,0.5-4.5,0.7-6.8c0.2-2.1,0.5-4.1,0.7-6.2
			c0.4-1.6,0.7-3.3,1.1-4.9c0.4-2.1,0.7-4.1,1.1-6.2l1.3-5.2l2.2-6.9l3.1-8.9l2.8-6.7l4-7.8l4.3-7.2l4.1-6.6l5.2-6.8l5.6-6.3
			l6.4-5.9l4.6-4l4.7-3.6l6.4-4.1l6-3.7l6.4-3.4l6-2.6l6.7-2.2l9.7-2.3l5.7-0.9l8.4-0.8l5.7-0.2l7.4,0.1l8.3,0.8l10.2,1.9l6,1.5
			l8,2.4l5.5,1.9l4.8,1.9l7,3.2l7.5,4.1l7,4.2l7.5,5.1c0.5,0.4,2.3,1.9,2.8,4.5c0.3,1.7,0,3.1-0.3,3.7c-0.6,0.7-1.2,1.4-1.8,2.1
			c0,0-77.6,90.2-71.5,83.1c25.3,29.2,50.6,58.3,75.9,87.5c0.6,0.8,1.4,2.2,1.2,3.8c-0.1,1.7-1.2,3.8-11.1,9.4
			c-1.7,0.9-4.5,2.5-9,4.8c-3.6,1.8-7,3.5-10.4,5c-3.8,1.4-7.6,2.8-11.4,4.3l-15.5,4l-9.3,1.4l-13.8,0.6l-8.1-0.5l-12-1.5l-9.5-1.9
			c-3.1-0.7-6.9-1.7-11.2-3.1C112.6,264.4,108.9,263.2,104.3,261.1z"/>
		<path class="st3" d="M197.8,196.6"/>
		<path class="st4" d="M229.1,70.8l-69.7,81.1l71.6,81.9l-7.4,5.7l-5.5,3.5l-5.8,3.2l-7.2,3.7l-9,3.4l-10.2,2.8l-11.1,2.5l-7.6,0.8
			l-9,0.4h-8.2l-8.1-0.6l-9-1.5l-11.5-3.2l-8.6-3.6l-8.4-4.3l-7.5-4.8l-5.3-4l-4.6-4l-6.2-5.9l-5.7-6.2l-4.6-5.9l-4.3-5.7l-2.5-4.4
			l-3.6-6.5l-2.8-6.2l-2.1-5.5l-2.3-6.9l-1.7-7.8l-1-6.9l-0.5-6.8v-8l0.8-9.6l1.8-11.2l2.3-8.7l2-5.5l2-4.6l1.9-4.8l2.5-5.3l3.2-5.6
			l3.3-5.6l3.7-5.1l4.9-6.5l3.7-4.5l6.1-5.7l4.1-3.4l6.5-5.3l5-3.4l6.3-3.4l7.1-3.6l6.7-2.7c2-0.7,4-1.4,6-2c2.6-0.5,5.2-1,7.8-1.5
			l6.4-0.8c2.4-0.2,4.7-0.3,7.1-0.5c2,0,4,0.1,6,0.1l6.9,0.6c2.2,0.3,4.5,0.7,6.7,1c1.9,0.3,3.9,0.7,5.8,1c1.5,0.4,3,0.8,4.6,1.2
			c1.4,0.4,2.7,0.7,4.1,1.1l4.7,1.3l3.9,1.5l3.4,1.3l3.9,1.5l3.8,1.7l3.7,1.8l3.1,1.6l4.1,2.5l5.4,3.5l3.6,2.7l3.2,2.7L229.1,70.8z"
			/>
		<path class="st5" d="M214.4,87.8c-1.1,1.3-37.3,43.8-54.4,63.7l55.9,65.1l-6.4,5.3l-6.1,4.2c-2,1.1-4,2.2-6.1,3.3
			c-2.4,1-4.9,2-7.3,3c-3,0.9-6.1,1.9-9.1,2.8c-3.5,0.8-7.1,1.5-10.6,2.3l-10.4,0.9h-8.5l-10.9-2.5l-10.5-3.4l-8-3.8l-6.6-3.7
			l-5.8-3.7l-5.7-4.7l-4.3-4.3l-3.4-3.4l-4-5l-4.3-6.2l-2.6-4l-3-6.5l-2.4-6.2l-1.5-5.6l-1.9-8.3l-0.9-10v-8.5l0.6-7.6l1-5.9
			l1.4-5.8l1.6-5.8l2.3-5.8l2.2-5.5l2.9-5.3l3.6-5.2l5-6.9l4.4-4.6l5.7-4.9l2.2-1.8l4.9-3.7c1.4-0.9,2.7-1.7,4.1-2.6
			c1.7-0.9,3.3-1.9,5-2.8c2-0.9,4-1.8,6.1-2.7c2-0.8,4-1.5,6.1-2.3l7.4-2.5l8-1.8c2.6-0.2,5.1-0.4,7.7-0.6c2.4,0.2,4.7,0.4,7.1,0.6
			l7.2,1.2l9.1,2.3l6.4,2.3c2.1,0.9,4.2,1.7,6.3,2.6c1.8,0.9,3.6,1.7,5.5,2.6c2,1.4,4,2.8,5.9,4.2c1.7,1.3,3.4,2.7,5.1,4
			C211.7,85.5,213,86.6,214.4,87.8z"/>
		<path class="st6" d="M158.2,138.4c2.7,1.1,7-3.4,8.8-5.3c1-1,1.6-1.8,2.3-2.7c4.4-5.5,5.7-6.2,11.1-12.6c1.8-2.1,3.2-3.9,5.9-7.4
			c7.1-9.1,5.4-7.6,7.3-9.6c1.9-2,3.6-3.5,4.5-6.3c0.3-1,0.7-2.4,0.4-4.1c-0.8-4.7-6.6-7.6-11.1-9.9c-1.4-0.7-3.2-1.4-6.8-2.8
			c-2.7-1-5.2-2-8.3-2.8c-2.1-0.5-3.4-0.8-4.9-0.9c-1.1-0.1-2.6-0.2-4.5,0.2c-1.3,0.3-2.8,0.6-3.9,1.6c-1.7,1.4-2,3.6-2.1,5.1
			c-0.7,6.3-0.5,11.8-0.5,13c0.1,4.8-0.4,3.3-0.8,12.2c-0.4,10.9,0.6,9.8-0.1,16.4c-0.2,2.2-0.6,5.1,0,9.2
			C156,134.9,156.5,137.7,158.2,138.4z"/>
		<path class="st6" d="M144.9,153.6c0.5-2.8-4.6-5.9-6.7-7.2c-1.2-0.7-2-1.1-3-1.5c-6.1-2.8-6.9-3.9-14-7.5
			c-2.3-1.2-4.3-2.1-8.1-3.9c-9.9-4.6-8.2-3.3-10.5-4.7c-2.2-1.3-4-2.6-6.8-2.7c-1,0-2.4-0.1-3.9,0.6c-4.3,1.9-5.8,8.2-7,13
			c-0.4,1.5-0.7,3.4-1.3,7.2c-0.4,2.8-0.8,5.5-0.9,8.7c-0.1,2.1-0.1,3.5,0.1,4.9c0.1,1.1,0.4,2.5,1.1,4.2c0.5,1.2,1.1,2.5,2.3,3.4
			c1.7,1.3,3.8,1,5.2,0.8c6-0.9,11.2-2.4,12.3-2.8c4.4-1.3,3.2-0.4,11.6-2.2c10.3-2.3,9-2.9,15.3-3.9c2.1-0.3,4.9-0.7,8.6-2.3
			C142,156.6,144.5,155.5,144.9,153.6z"/>
		<path class="st6" d="M149.2,164.1c-2-1.9-7.4,0.8-9.7,1.9c-1.2,0.6-2,1.1-2.9,1.7c-5.8,3.6-7.2,3.7-14.1,7.7
			c-2.3,1.3-4.1,2.4-7.8,4.7c-9.4,5.8-7.4,5.1-9.8,6.3c-2.4,1.2-4.4,1.9-6.1,4.2c-0.6,0.8-1.4,1.9-1.7,3.5c-0.8,4.5,3.4,9,6.6,12.4
			c1,1.1,2.4,2.3,5.2,4.7c2,1.8,4,3.4,6.5,5.2c1.7,1.2,2.8,1.8,4.1,2.4c1,0.4,2.3,1,4.1,1.2c1.3,0.2,2.7,0.4,4.1-0.1
			c2-0.7,3-2.6,3.6-3.9c2.7-5.4,4.4-10.4,4.8-11.5c1.5-4.3,1.5-2.8,4.8-10.7c4-9.6,2.8-8.9,5.5-14.6c0.9-1.9,2.2-4.4,3-8.2
			C150,168,150.5,165.3,149.2,164.1z"/>
		<path class="st6" d="M159.1,164.4c1.9-1,4.2,0.2,5.6,1c2.4,1.3,3.8,3.1,4,3.4c3.3,4.4,6.8,8.5,10,13c3.7,5.4,5.6,8.2,7.9,11
			c2.3,2.9,4.5,5.8,6.8,8.7c2.6,3.3,3.7,4.6,4.2,7c0.2,0.9,1,4.5-1,8c-0.9,1.6-2,2.5-4.3,4.3c-1.7,1.4-4.2,3.4-7.8,5
			c-4.2,1.9-10.9,5.1-17.3,2.5c-5.1-2.1-7.3-6.7-8.4-8.9c-1.5-3.1-1.8-5.8-2.4-11.2c-0.5-5.2-0.5-9.3-0.3-14
			c0.1-6.2,0.5-6.4,0.4-10.9c-0.1-3,0-5.9-0.2-8.9c-0.2-2-0.4-4,0.5-6.6C157.2,166.6,157.7,165.1,159.1,164.4z"/>
		<path class="st6" d="M151.1,143c-1.6,1.1-4.2,0.1-5.6-0.4c-2.6-1-4.3-2.6-4.6-2.9c-4.1-3.8-8.4-7.5-12.4-11.5
			c-4.8-4.8-7.2-7.2-9.9-9.7c-2.8-2.5-5.6-5.1-8.4-7.6c-3.3-2.9-4.6-4-5.6-6.2c-0.4-0.8-1.9-4.1-0.7-7.6c0.5-1.6,1.4-2.6,3.2-4.4
			c1.4-1.4,3.4-3.5,6.5-5.4c3.7-2.2,9.6-5.7,16.3-3.8c5.4,1.5,8.5,5.7,10,7.7c2.1,2.8,3,5.3,4.7,10.4c1.6,4.8,2.4,8.7,3.3,13.1
			c1.2,5.9,0.9,6.1,1.9,10.3c0.7,2.8,1.2,5.6,2.1,8.3c0.6,1.9,1.2,3.8,0.9,6.2C152.4,140.7,152.2,142.2,151.1,143z"/>
	</g>
</g>
<g id="Layer_7">
	<rect x="236.7" y="172.2" class="st7" width="573.9" height="114.1"/>
	<text transform="matrix(1 0 0 1 236.7227 265.7173)" class="st6 st8 st9 st10">USE</text>
	<rect x="231" y="278.9" class="st7" width="625" height="256.3"/>
	<text transform="matrix(1 0 0 1 230.9648 509.9668)"><tspan x="0" y="0" class="st6 st8 st11 st12">H</tspan><tspan x="228" y="0" class="st6 st8 st9 st10">ACKS</tspan></text>
</g>
</svg>
