<?xml version="1.0" encoding="utf-8"?>
<!-- Generator: Adobe Illustrator 22.0.1, SVG Export Plug-In . SVG Version: 6.00 Build 0)  -->
<svg version="1.1" xmlns="http://www.w3.org/2000/svg" xmlns:xlink="http://www.w3.org/1999/xlink" x="0px" y="0px"
	 viewBox="0 0 792 612" style="enable-background:new 0 0 792 612;" xml:space="preserve">
<style type="text/css">
	.st0{fill:#006838;}
	.st1{fill:#1B773A;}
	.st2{fill:#F05724;}
	.st3{fill:none;stroke:#000000;stroke-miterlimit:10;}
	.st4{fill:#FAA95A;}
	.st5{fill:#FED3AA;}
	.st6{fill:#F47E20;}
	.st7{fill:none;}
	.st8{font-family:'Montserrat-Medium';}
	.st9{font-size:85.794px;}
	.st10{letter-spacing:-6;}
	.st11{fill:#5B5E6E;}
	.st12{font-size:212px;}
	.st13{letter-spacing:-16;}
</style>
<g id="Layer_6">
</g>
<g id="Layer_2">
</g>
<g id="Layer_3">
</g>
<g id="Layer_4">
</g>
<g id="Layer_5">
	<g>
		<path class="st0" d="M87.8,169.8c-6.1,1.7-8.8,11.4-8.3,18.3c1,15.1,17.8,28.8,25.3,25.8c6.4-2.5,7.6-17.6,2.7-28.3
			C103.9,177.6,95,167.8,87.8,169.8z"/>
		<path class="st1" d="M60.6,206.7c2.7-3.3,7.6-5.9,11.4-7.1c17.6-5.4,37.8,13.2,30.5,20.5c-6,6-34,8.2-41.7-1.2
			C60,217.9,55.7,212.6,60.6,206.7z"/>
		<path class="st2" d="M126.6,342.4c-2.1-0.9-4.6-2.2-7.4-3.9l-4.3-2.7l-4.2-3.3l-4.9-4.9l-5.1-5.8l-4.6-6.2l-4.8-7.5l-2.9-5.3
			l-2.2-4.7l-1.5-3.9l-1.1-3.6l-1-3.9l-1.2-7l-0.2-4.6v-3c0.2-1.4,0.3-2.9,0.5-4.3c0.2-1.5,0.3-3.1,0.5-4.6c0.2-1.4,0.3-2.8,0.5-4.2
			c0.2-1.1,0.5-2.2,0.7-3.4c0.2-1.4,0.5-2.8,0.7-4.2l0.9-3.5l1.5-4.7l2.1-6.1l1.9-4.6l2.8-5.3l2.9-4.9l2.8-4.5l3.5-4.6l3.8-4.3
			l4.3-4l3.1-2.7l3.2-2.4l4.4-2.8l4.1-2.5l4.3-2.3l4.1-1.8l4.6-1.5l6.6-1.6l3.9-0.6l5.7-0.6l3.9-0.2l5.1,0.1l5.6,0.5l7,1.3l4.1,1
			l5.4,1.6l3.7,1.3l3.3,1.3l4.7,2.2l5.1,2.8l4.8,2.9l5.1,3.5c0.3,0.3,1.6,1.3,1.9,3.1c0.2,1.1,0,2.1-0.2,2.5c-0.4,0.5-0.8,1-1.3,1.5
			c0,0-52.8,61.4-48.7,56.6c17.2,19.9,34.4,39.7,51.6,59.6c0.4,0.6,0.9,1.5,0.8,2.6c-0.1,1.1-0.8,2.6-7.6,6.4
			c-1.1,0.6-3.1,1.7-6.1,3.3c-2.4,1.2-4.8,2.4-7.1,3.4c-2.6,1-5.2,1.9-7.8,2.9l-10.6,2.7l-6.3,0.9l-9.4,0.4l-5.5-0.3l-8.2-1.1
			l-6.5-1.3c-2.1-0.5-4.7-1.2-7.7-2.1C132.3,344.7,129.8,343.9,126.6,342.4z"/>
		<path class="st3" d="M190.3,298.5"/>
		<path class="st4" d="M211.6,212.9l-47.5,55.2l48.7,55.7l-5,3.9l-3.7,2.4l-3.9,2.2l-4.9,2.5l-6.1,2.3l-6.9,1.9l-7.6,1.7l-5.1,0.5
			l-6.1,0.3h-5.6l-5.5-0.4l-6.1-1l-7.8-2.2l-5.9-2.4l-5.7-2.9l-5.1-3.2l-3.6-2.7l-3.1-2.7l-4.2-4l-3.8-4.2l-3.1-4l-2.9-3.9l-1.7-3
			l-2.4-4.4l-1.9-4.2l-1.4-3.8l-1.6-4.7l-1.2-5.3l-0.7-4.7l-0.3-4.6v-5.4l0.5-6.5l1.2-7.6l1.6-5.9l1.3-3.7l1.4-3.1l1.3-3.2l1.7-3.6
			l2.2-3.8l2.2-3.8l2.5-3.5l3.3-4.4l2.6-3.1l4.2-3.8l2.8-2.3l4.5-3.6l3.4-2.3l4.3-2.3l4.8-2.5l4.6-1.9c1.4-0.5,2.7-0.9,4.1-1.4
			c1.8-0.3,3.5-0.7,5.3-1l4.3-0.5c1.6-0.1,3.2-0.2,4.8-0.3c1.4,0,2.7,0,4.1,0.1l4.7,0.4c1.5,0.2,3.1,0.5,4.6,0.7
			c1.3,0.2,2.6,0.4,3.9,0.7c1,0.3,2.1,0.5,3.1,0.8c0.9,0.2,1.8,0.5,2.8,0.7l3.2,0.9l2.7,1l2.3,0.9l2.7,1l2.6,1.2l2.5,1.3l2.1,1.1
			l2.8,1.7l3.7,2.4l2.5,1.8l2.2,1.8L211.6,212.9z"/>
		<path class="st5" d="M201.6,224.5c-0.7,0.9-25.4,29.8-37,43.4l38.1,44.3l-4.4,3.6l-4.1,2.8c-1.4,0.8-2.7,1.5-4.1,2.3
			c-1.7,0.7-3.3,1.3-5,2c-2.1,0.6-4.1,1.3-6.2,1.9c-2.4,0.5-4.8,1-7.2,1.5l-7.1,0.6h-5.8l-7.5-1.7l-7.1-2.3l-5.5-2.6l-4.5-2.5
			l-4-2.5l-3.9-3.2l-2.9-2.9l-2.3-2.3l-2.7-3.4l-2.9-4.2l-1.7-2.7l-2.1-4.4L110,288l-1-3.8l-1.3-5.7l-0.6-6.8v-5.8l0.4-5.2l0.7-4
			l1-4l1.1-4l1.6-4l1.5-3.7l2-3.6l2.5-3.6l3.4-4.7l3-3.1l3.9-3.3l1.5-1.2l3.3-2.5c0.9-0.6,1.8-1.2,2.8-1.8c1.1-0.6,2.3-1.3,3.4-1.9
			c1.4-0.6,2.7-1.2,4.1-1.9c1.4-0.5,2.7-1,4.1-1.5l5-1.7l5.4-1.2c1.7-0.1,3.5-0.3,5.2-0.4c1.6,0.1,3.2,0.3,4.8,0.4l4.9,0.8l6.2,1.5
			l4.4,1.5c1.4,0.6,2.9,1.2,4.3,1.8c1.2,0.6,2.5,1.2,3.7,1.8c1.3,0.9,2.7,1.9,4,2.8c1.2,0.9,2.3,1.8,3.5,2.7
			C199.8,222.9,200.7,223.7,201.6,224.5z"/>
		<path class="st6" d="M163.3,258.9c1.8,0.8,4.8-2.3,6-3.6c0.7-0.7,1.1-1.2,1.5-1.8c3-3.8,3.9-4.2,7.5-8.6c1.2-1.4,2.2-2.6,4-5
			c4.8-6.2,3.7-5.2,5-6.6c1.3-1.4,2.5-2.3,3.1-4.3c0.2-0.7,0.5-1.6,0.3-2.8c-0.6-3.2-4.5-5.2-7.5-6.7c-0.9-0.5-2.2-1-4.6-1.9
			c-1.8-0.7-3.6-1.3-5.7-1.9c-1.4-0.4-2.3-0.5-3.3-0.6c-0.7-0.1-1.8-0.1-3,0.1c-0.9,0.2-1.9,0.4-2.7,1.1c-1.2,1-1.3,2.5-1.5,3.5
			c-0.5,4.3-0.3,8-0.3,8.9c0.1,3.2-0.3,2.2-0.5,8.3c-0.3,7.4,0.4,6.6-0.1,11.1c-0.1,1.5-0.4,3.5,0,6.3
			C161.9,256.5,162.1,258.4,163.3,258.9z"/>
		<path class="st6" d="M154.3,269.3c0.3-1.9-3.1-4-4.6-4.9c-0.8-0.5-1.4-0.7-2-1c-4.1-1.9-4.7-2.7-9.5-5.1c-1.6-0.8-2.9-1.4-5.5-2.6
			c-6.7-3.1-5.6-2.3-7.1-3.2c-1.5-0.9-2.7-1.8-4.6-1.9c-0.7,0-1.6-0.1-2.6,0.4c-2.9,1.3-4,5.6-4.8,8.9c-0.3,1-0.5,2.3-0.9,4.9
			c-0.3,1.9-0.5,3.7-0.6,5.9c-0.1,1.4,0,2.3,0.1,3.3c0.1,0.7,0.2,1.7,0.7,2.9c0.4,0.8,0.7,1.7,1.5,2.3c1.1,0.9,2.6,0.7,3.5,0.5
			c4.1-0.6,7.6-1.6,8.4-1.9c3-0.9,2.2-0.3,7.9-1.5c7-1.5,6.1-2,10.4-2.7c1.4-0.2,3.4-0.5,5.8-1.6C152.3,271.3,154,270.5,154.3,269.3
			z"/>
		<path class="st6" d="M157.2,276.4c-1.4-1.3-5.1,0.5-6.6,1.3c-0.8,0.4-1.4,0.7-2,1.1c-3.9,2.4-4.9,2.5-9.6,5.2
			c-1.6,0.9-2.8,1.7-5.3,3.2c-6.4,4-5.1,3.5-6.7,4.3c-1.6,0.8-3,1.3-4.2,2.9c-0.4,0.5-1,1.3-1.2,2.4c-0.6,3.1,2.3,6.1,4.5,8.4
			c0.7,0.7,1.6,1.5,3.5,3.2c1.4,1.2,2.7,2.3,4.5,3.5c1.1,0.8,1.9,1.2,2.8,1.6c0.7,0.3,1.5,0.7,2.8,0.8c0.9,0.1,1.8,0.3,2.8-0.1
			c1.4-0.5,2-1.8,2.5-2.6c1.9-3.7,3-7.1,3.2-7.8c1-2.9,1-1.9,3.3-7.3c2.7-6.5,1.9-6.1,3.8-10c0.6-1.3,1.5-3,2.1-5.6
			C157.7,279,158.1,277.2,157.2,276.4z"/>
		<path class="st6" d="M163.9,276.6c1.3-0.7,2.9,0.2,3.8,0.7c1.7,0.9,2.6,2.1,2.7,2.3c2.2,3,4.7,5.8,6.8,8.9
			c2.6,3.7,3.8,5.6,5.3,7.5c1.6,2,3.1,4,4.6,5.9c1.8,2.2,2.5,3.1,2.9,4.7c0.1,0.6,0.7,3-0.7,5.4c-0.6,1.1-1.4,1.7-2.9,2.9
			c-1.2,0.9-2.9,2.3-5.3,3.4c-2.8,1.3-7.4,3.5-11.8,1.7c-3.5-1.4-5-4.6-5.7-6.1c-1-2.1-1.2-4-1.6-7.6c-0.4-3.5-0.3-6.3-0.2-9.5
			c0.1-4.2,0.3-4.3,0.3-7.4c-0.1-2,0-4-0.1-6c-0.1-1.3-0.3-2.7,0.3-4.5C162.7,278.1,163,277.1,163.9,276.6z"/>
		<path class="st6" d="M158.5,262c-1.1,0.8-2.8,0.1-3.8-0.3c-1.8-0.7-2.9-1.8-3.2-2c-2.8-2.6-5.7-5.1-8.4-7.8
			c-3.3-3.3-4.9-4.9-6.8-6.6c-1.9-1.7-3.8-3.5-5.7-5.2c-2.2-2-3.1-2.7-3.8-4.2c-0.2-0.5-1.3-2.8-0.5-5.2c0.4-1.1,1-1.8,2.2-3
			c0.9-1,2.3-2.4,4.4-3.7c2.5-1.5,6.5-3.9,11.1-2.6c3.6,1,5.8,3.9,6.8,5.2c1.4,1.9,2,3.6,3.2,7.1c1.1,3.3,1.6,6,2.2,8.9
			c0.8,4,0.6,4.1,1.3,7c0.5,1.9,0.8,3.8,1.4,5.7c0.4,1.3,0.8,2.6,0.6,4.2C159.4,260.5,159.3,261.5,158.5,262z"/>
	</g>
</g>
<g id="Layer_7">
	<rect x="216.8" y="281.9" class="st7" width="390.7" height="77.6"/>
	<text transform="matrix(1 0 0 1 216.7877 345.582)" class="st6 st8 st9 st10">USE</text>
	<rect x="216.8" y="350.1" class="st7" width="425.5" height="174.5"/>
	<text transform="matrix(1 0 0 1 216.788 507.3582)"><tspan x="0" y="0" class="st11 st8 st12 st13">H</tspan><tspan x="155.2" y="0" class="st11 st8 st9 st10">ACKS</tspan></text>
</g>
</svg>
